<svg xmlns:xlink="http://www.w3.org/1999/xlink">

    <symbol viewBox="0 0 60 60" id="chat" xmlns="http://www.w3.org/2000/svg">
        <defs>
            <g id="chat_icon">
                <path xmlns="http://www.w3.org/2000/svg" d="M26,9.586C11.664,9.586,0,20.09,0,33c0,4.499,1.418,8.856,4.106,12.627c-0.51,5.578-1.86,9.712-3.813,11.666   c-0.304,0.304-0.38,0.768-0.188,1.153C0.276,58.789,0.625,59,1,59c0.046,0,0.093-0.003,0.14-0.01   c0.349-0.049,8.432-1.213,14.317-4.585c3.33,1.333,6.874,2.009,10.544,2.009c14.336,0,26-10.503,26-23.414S40.337,9.586,26,9.586z"/>
                <path xmlns="http://www.w3.org/2000/svg" d="M55.894,37.042C58.582,33.27,60,28.912,60,24.414C60,11.503,48.337,1,34,1c-8.246,0-15.968,3.592-20.824,9.42   C17.021,8.614,21.38,7.586,26,7.586c15.439,0,28,11.4,28,25.414c0,5.506-1.945,10.604-5.236,14.77   c4.946,1.887,9.853,2.6,10.096,2.634c0.047,0.006,0.094,0.01,0.14,0.01c0.375,0,0.724-0.211,0.895-0.554   c0.192-0.385,0.116-0.849-0.188-1.153C57.753,46.753,56.403,42.619,55.894,37.042z"/>
            </g>
        </defs>
        <use xlink:href="#chat_icon" transform="translate(0 0 60 60)"/>
    </symbol>


    <symbol viewBox="0 0 357.102 357.102" id="time" xmlns="http://www.w3.org/2000/svg">
        <defs>
            <g id="time_icon">
                <path xmlns="http://www.w3.org/2000/svg" d="M192.349,13.8c-90.484,0-164.387,73.614-164.741,164.096l-0.007,1.74c0,3.442-2.359,5.117-7.013,5.117H5.91   c-2.831,0-4.688,0.974-5.517,2.756c-1.241,2.666,0.784,5.613,1.616,6.64l39.939,63.027l0.243,0.331   c1.074,1.224,2.489,1.929,3.882,1.929c1.134,0,2.782-0.437,4.237-2.596l39.441-62.379c0.918-1.075,3.102-4.123,1.872-6.864   c-0.825-1.84-2.751-2.844-5.724-2.844H71.05c-4.432,0-6.998-1.062-6.998-6.853c0-70.426,57.554-127.686,128.297-127.686   c70.749,0,128.308,57.574,128.308,128.321c0,70.748-57.559,128.314-128.308,128.314c-18.913,0-37.12-4.01-54.114-11.928   c-2.433-1.134-5.018-1.707-7.684-1.707c-7.063,0-13.552,4.135-16.533,10.532c-4.241,9.11-0.283,19.972,8.823,24.214   c21.852,10.18,45.237,15.342,69.508,15.342c90.845,0,164.753-73.907,164.753-164.751C357.102,87.707,283.194,13.8,192.349,13.8z"/>
                <path xmlns="http://www.w3.org/2000/svg" d="M186.553,98.752c-8.284,0-15,6.716-15,15v63c0,7.883,4.452,16.048,11.081,20.319l54.797,35.291   c2.513,1.619,5.326,2.392,8.108,2.392c4.929-0.001,9.757-2.428,12.624-6.88c4.486-6.965,2.477-16.247-4.488-20.732l-52.122-33.569   v-59.82C201.553,105.468,194.837,98.752,186.553,98.752z"/>            </g>
        </defs>
        <use xlink:href="#time_icon" transform="translate(0 0 357.102 357.102)"/>
    </symbol>

    <symbol viewBox="0 0 511.626 511.626" id="list" xmlns="http://www.w3.org/2000/svg">
        <defs>
            <g id="list_icon">
                <path xmlns="http://www.w3.org/2000/svg" d="M54.818,200.999c-15.23,0-28.171,5.327-38.832,15.987C5.33,227.642,0,240.583,0,255.813c0,15.223,5.33,28.172,15.99,38.83    c10.66,10.656,23.604,15.984,38.832,15.984c15.225,0,28.167-5.328,38.828-15.984c10.657-10.657,15.987-23.606,15.987-38.83    c0-15.23-5.33-28.171-15.99-38.828C82.989,206.329,70.046,200.999,54.818,200.999z"/>
                <path xmlns="http://www.w3.org/2000/svg" d="M54.821,54.817c-15.23,0-28.171,5.33-38.832,15.987C5.333,81.464,0.003,94.405,0.003,109.632    c0,15.229,5.327,28.171,15.986,38.831c10.66,10.657,23.604,15.985,38.832,15.985c15.225,0,28.167-5.329,38.828-15.985    c10.657-10.66,15.987-23.603,15.987-38.831c0-15.227-5.33-28.168-15.987-38.828C82.993,60.147,70.051,54.817,54.821,54.817z"/>
                <path xmlns="http://www.w3.org/2000/svg" d="M54.821,347.18c-15.23,0-28.175,5.325-38.832,15.981C5.333,373.824,0.003,386.767,0.003,401.989    c0,15.235,5.327,28.171,15.986,38.834c10.66,10.657,23.604,15.985,38.832,15.985c15.225,0,28.167-5.328,38.828-15.985    c10.657-10.663,15.987-23.599,15.987-38.834c0-15.223-5.33-28.172-15.987-38.828C82.993,352.505,70.051,347.18,54.821,347.18z"/>
                <path xmlns="http://www.w3.org/2000/svg" d="M508.917,75.8c-1.813-1.803-3.949-2.708-6.427-2.708H155.313c-2.473,0-4.615,0.902-6.423,2.708    c-1.807,1.812-2.712,3.949-2.712,6.423v54.821c0,2.475,0.905,4.611,2.712,6.424c1.809,1.805,3.951,2.708,6.423,2.708H502.49    c2.478,0,4.616-0.9,6.427-2.708c1.81-1.812,2.71-3.949,2.71-6.424V82.224C511.626,79.75,510.723,77.609,508.917,75.8z"/>
                <path xmlns="http://www.w3.org/2000/svg" d="M502.49,219.271H155.313c-2.473,0-4.615,0.9-6.423,2.712c-1.807,1.807-2.712,3.949-2.712,6.423v54.819    c0,2.472,0.905,4.613,2.712,6.421c1.809,1.813,3.951,2.714,6.423,2.714H502.49c2.478,0,4.616-0.9,6.427-2.714    c1.81-1.808,2.71-3.949,2.71-6.421v-54.819c0-2.474-0.903-4.62-2.71-6.423C507.103,220.175,504.967,219.271,502.49,219.271z"/>
                <path xmlns="http://www.w3.org/2000/svg" d="M502.49,365.447H155.313c-2.473,0-4.615,0.903-6.423,2.714c-1.807,1.81-2.712,3.949-2.712,6.42V429.4    c0,2.478,0.905,4.616,2.712,6.427c1.809,1.807,3.951,2.707,6.423,2.707H502.49c2.478,0,4.616-0.9,6.427-2.707    c1.81-1.811,2.71-3.949,2.71-6.427v-54.819c0-2.471-0.903-4.617-2.71-6.42C507.103,366.357,504.967,365.447,502.49,365.447z"/>
            </g>
        </defs>
        <use xlink:href="#list_icon" transform="translate(0 0 511.626 511.626)"/>
    </symbol>
    <symbol viewBox="0 0 44 44" id="tick" xmlns="http://www.w3.org/2000/svg">
        <defs>
            <g id="tick_icon">
                <path xmlns="http://www.w3.org/2000/svg" d="m22,0c-12.2,0-22,9.8-22,22s9.8,22 22,22 22-9.8 22-22-9.8-22-22-22zm12.7,15.1l0,0-16,16.6c-0.2,0.2-0.4,0.3-0.7,0.3-0.3,0-0.6-0.1-0.7-0.3l-7.8-8.4-.2-.2c-0.2-0.2-0.3-0.5-0.3-0.7s0.1-0.5 0.3-0.7l1.4-1.4c0.4-0.4 1-0.4 1.4,0l.1,.1 5.5,5.9c0.2,0.2 0.5,0.2 0.7,0l13.4-13.9h0.1c0.4-0.4 1-0.4 1.4,0l1.4,1.4c0.4,0.3 0.4,0.9 0,1.3z"/>
            </g>
        </defs>
        <use xlink:href="#tick_icon" transform="translate(0 0 44 44)"/>
    </symbol>

    <symbol viewBox="0 0 15 15" id="star" xmlns="http://www.w3.org/2000/svg"> <defs> <g id='strr'> <path d="M6.992,-0.002 L9.094,4.699 L13.998,5.346 L10.393,8.899 L11.322,14.000 L6.992,11.495 L2.663,14.000 L3.592,8.899 L-0.013,5.346 L4.891,4.699 L6.992,-0.002 Z"/> </g> </defs> <use xlink:href="#strr" transform="translate(0 0 15 15)"/> </symbol> <symbol viewBox="0 0 12 12" id="show_td" xmlns="http://www.w3.org/2000/svg"> <defs> <g id='show'> <path d="M11.000,7.000 C10.448,7.000 10.000,6.552 10.000,6.000 C10.000,5.448 10.448,5.000 11.000,5.000 C11.552,5.000 12.000,5.448 12.000,6.000 C12.000,6.552 11.552,7.000 11.000,7.000 ZM11.000,2.000 C10.448,2.000 10.000,1.552 10.000,1.000 C10.000,0.448 10.448,-0.000 11.000,-0.000 C11.552,-0.000 12.000,0.448 12.000,1.000 C12.000,1.552 11.552,2.000 11.000,2.000 ZM6.000,12.000 C5.448,12.000 5.000,11.552 5.000,11.000 C5.000,10.447 5.448,10.000 6.000,10.000 C6.552,10.000 7.000,10.447 7.000,11.000 C7.000,11.552 6.552,12.000 6.000,12.000 ZM6.000,7.000 C5.448,7.000 5.000,6.552 5.000,6.000 C5.000,5.448 5.448,5.000 6.000,5.000 C6.552,5.000 7.000,5.448 7.000,6.000 C7.000,6.552 6.552,7.000 6.000,7.000 ZM6.000,2.000 C5.448,2.000 5.000,1.552 5.000,1.000 C5.000,0.448 5.448,-0.000 6.000,-0.000 C6.552,-0.000 7.000,0.448 7.000,1.000 C7.000,1.552 6.552,2.000 6.000,2.000 ZM1.000,12.000 C0.448,12.000 -0.000,11.552 -0.000,11.000 C-0.000,10.447 0.448,10.000 1.000,10.000 C1.552,10.000 2.000,10.447 2.000,11.000 C2.000,11.552 1.552,12.000 1.000,12.000 ZM1.000,7.000 C0.448,7.000 -0.000,6.552 -0.000,6.000 C-0.000,5.448 0.448,5.000 1.000,5.000 C1.552,5.000 2.000,5.448 2.000,6.000 C2.000,6.552 1.552,7.000 1.000,7.000 ZM1.000,2.000 C0.448,2.000 -0.000,1.552 -0.000,1.000 C-0.000,0.448 0.448,-0.000 1.000,-0.000 C1.552,-0.000 2.000,0.448 2.000,1.000 C2.000,1.552 1.552,2.000 1.000,2.000 ZM11.000,10.000 C11.552,10.000 12.000,10.447 12.000,11.000 C12.000,11.552 11.552,12.000 11.000,12.000 C10.448,12.000 10.000,11.552 10.000,11.000 C10.000,10.447 10.448,10.000 11.000,10.000 Z"/> </g> </defs> <use xlink:href="#show" transform="translate(0 0 12 12)"/> </symbol>


    <symbol viewBox="0 0 96.1 96.1" id="faceboock" xmlns="http://www.w3.org/2000/svg">
        <defs>
            <g id="fb">
            	<path d="M72.1,0L59.6,0c-14,0-23.1,9.3-23.1,23.7v10.9H24c-1.1,0-2,0.9-2,2v15.8c0,1.1,0.9,2,2,2h12.5v39.9c0,1.1,0.9,2,2,2h16.4   c1.1,0,2-0.9,2-2V54.3h14.7c1.1,0,2-0.9,2-2l0-15.8c0-0.5-0.2-1-0.6-1.4s-0.9-0.6-1.4-0.6H56.8v-9.2c0-4.4,1.1-6.7,6.8-6.7l8.4,0   c1.1,0,2-0.9,2-2V2C74,0.9,73.2,0,72.1,0z"/>
             </g>
        </defs>
        <use xlink:href="#fb" transform="translate(0 0 96.1 96.1)"/>
    </symbol>


     <symbol viewBox="0 0 438.5 438.5" id="instagram" xmlns="http://www.w3.org/2000/svg">
        <defs>
            <g id="inst">
               	<path d="M422,16.6C410.9,5.5,397.7,0,382.3,0h-326C40.8,0,27.6,5.5,16.6,16.6C5.5,27.6,0,40.8,0,56.2v326   c0,15.4,5.5,28.6,16.6,39.7c11,11,24.3,16.6,39.7,16.6h326c15.4,0,28.6-5.5,39.7-16.6c11-11,16.6-24.3,16.6-39.7v-326   C438.5,40.8,433,27.6,422,16.6z M157.5,158c17.2-16.7,37.9-25,62.1-25c24.4,0,45.2,8.3,62.4,25c17.2,16.7,25.8,36.8,25.8,60.4   c0,23.6-8.6,43.7-25.8,60.4c-17.2,16.7-38,25-62.4,25c-24.2,0-44.9-8.3-62.1-25c-17.2-16.7-25.8-36.8-25.8-60.4   C131.6,194.8,140.2,174.7,157.5,158z M388.9,370.6c0,4.9-1.7,9.1-5.1,12.4c-3.4,3.3-7.5,5-12.3,5H66.2c-4.9,0-9.1-1.7-12.4-5   c-3.3-3.3-5-7.5-5-12.4v-185h40.3c-3.8,12-5.7,24.5-5.7,37.4c0,36.6,13.3,67.7,40,93.5c26.6,25.8,58.7,38.7,96.2,38.7   c24.7,0,47.6-5.9,68.5-17.7c20.9-11.8,37.5-27.8,49.7-48.1C349.9,269.1,356,247,356,223c0-12.9-1.9-25.4-5.7-37.4h38.5L388.9,370.6   L388.9,370.6L388.9,370.6z M388.9,115.6c0,5.5-1.9,10.2-5.7,14c-3.8,3.8-8.5,5.7-14,5.7h-49.7c-5.5,0-10.2-1.9-14-5.7   c-3.8-3.8-5.7-8.5-5.7-14V68.5c0-5.3,1.9-9.9,5.7-13.8c3.8-3.9,8.5-5.9,14-5.9h49.7c5.5,0,10.2,2,14,5.9c3.8,3.9,5.7,8.5,5.7,13.8   V115.6z"/>
            </g>
        </defs>
        <use xlink:href="#inst" transform="translate(0 0 438.5 438.5)"/>
    </symbol>


    <symbol viewBox="0 0 304.4 304.4" id="vk" xmlns="http://www.w3.org/2000/svg">
        <defs>
            <g id="vkl">
	            <path id="XMLID_807_" d="M261.9,175.6c10.1,9.9,20.8,19.1,29.8,30c4,4.8,7.8,9.8,10.7,15.4c4.1,8,0.4,16.7-6.7,17.2l-44.3,0   c-11.4,0.9-20.6-3.7-28.2-11.5c-6.1-6.3-11.8-12.9-17.7-19.4c-2.4-2.6-5-5.1-8-7.1c-6.1-3.9-11.3-2.7-14.8,3.6   c-3.5,6.4-4.3,13.5-4.7,20.7c-0.5,10.4-3.6,13.2-14.1,13.7c-22.4,1.1-43.7-2.3-63.4-13.6c-17.4-10-30.9-24-42.7-40   c-22.9-31-40.4-65.1-56.2-100.1c-3.5-7.9-1-12.1,7.8-12.3c14.5-0.3,28.9-0.3,43.4,0c5.9,0.1,9.8,3.5,12,9   c7.8,19.2,17.4,37.6,29.4,54.5c3.2,4.5,6.5,9,11.1,12.2c5.1,3.5,9.1,2.4,11.5-3.4c1.5-3.6,2.2-7.5,2.6-11.4   c1.1-13.4,1.3-26.7-0.7-40.1c-1.2-8.3-5.9-13.7-14.2-15.3c-4.2-0.8-3.6-2.4-1.6-4.8c3.6-4.2,6.9-6.8,13.6-6.8h50.1   c7.9,1.6,9.6,5.1,10.7,13l0,55.7c-0.1,3.1,1.5,12.2,7.1,14.2c4.4,1.4,7.4-2.1,10-4.9c12-12.7,20.6-27.8,28.2-43.4   c3.4-6.9,6.3-14,9.1-21.1c2.1-5.3,5.4-7.9,11.3-7.8l48.2,0c1.4,0,2.9,0,4.3,0.3c8.1,1.4,10.4,4.9,7.8,12.8   c-4,12.5-11.6,22.8-19.2,33.3c-8,11.1-16.6,21.9-24.6,33.1C252.3,161.5,252.8,166.7,261.9,175.6L261.9,175.6z"/>
             </g>
        </defs>
        <use xlink:href="#vkl" transform="translate(0 0 304.4 304.4)"/>
    </symbol>

    <symbol viewBox="0 0 512 512" id="youtube" xmlns="http://www.w3.org/2000/svg">
        <defs>
            <g id="ytb">
	        	<path d="M490.2,113.9c-13.9-24.7-29-29.2-59.6-31C399.9,80.9,322.8,80,256.1,80c-66.9,0-144,0.9-174.7,2.9    c-30.6,1.8-45.7,6.3-59.7,31C7.4,138.6,0,181.1,0,255.9c0,0.1,0,0.1,0,0.1c0,0.1,0,0.1,0,0.1v0.1c0,74.5,7.4,117.3,21.7,141.7    c14,24.7,29.1,29.2,59.7,31.3c30.7,1.8,107.8,2.8,174.7,2.8c66.8,0,143.9-1.1,174.6-2.8c30.7-2.1,45.8-6.6,59.6-31.3    c14.4-24.4,21.7-67.2,21.7-141.7c0,0,0-0.1,0-0.2c0,0,0-0.1,0-0.1C512,181.1,504.7,138.6,490.2,113.9z M192,352V160l160,96    L192,352z"/>
            </g>
        </defs>
        <use xlink:href="#ytb" transform="translate(0 0 512 512)"/>
    </symbol>


  <symbol viewBox="0 0 203.5 203.5" id="clocker" xmlns="http://www.w3.org/2000/svg">
        <defs>
            <g id="clck">
	      	<path d="M194.1,11.9h-39.3V6c0-3.3-2.7-6-6-6s-6,2.7-6,6v5.9h-35.1V6c0-3.3-2.7-6-6-6s-6,2.7-6,6v5.9H62.2V6c0-3.3-2.7-6-6-6   s-6,2.7-6,6v5.9H9.4c-3.3,0-6,2.7-6,6v135.6c0,3.3,2.7,6,6,6h36.8c5.9,25.2,28.6,44.1,55.5,44.1s49.6-18.8,55.5-44.1h36.8   c3.3,0,6-2.7,6-6V17.9C200.1,14.6,197.5,11.9,194.1,11.9L194.1,11.9z M50.2,23.9v5.4c0,3.3,2.7,6,6,6s6-2.7,6-6v-5.4h33.6v5.4   c0,3.3,2.7,6,6,6s6-2.7,6-6v-5.4h35.1v5.4c0,3.3,2.7,6,6,6s6-2.7,6-6v-5.4h33.3v24.5H15.4V23.9H50.2z M101.8,191.5   c-24.8,0-45.1-20.2-45.1-45.1s20.2-45.1,45.1-45.1s45.1,20.2,45.1,45.1S126.6,191.5,101.8,191.5z M158.8,147.5c0-0.3,0-0.7,0-1   c0-31.5-25.6-57.1-57.1-57.1S44.7,115,44.7,146.5c0,0.3,0,0.7,0,1H15.4v-87h172.7v87H158.8L158.8,147.5z"/>
	<path d="M107.8,148v-29c0-3.3-2.7-6-6-6s-6,2.7-6,6v31.5c0,1.6,0.6,3.1,1.8,4.2l13.8,13.8c1.2,1.2,2.7,1.8,4.2,1.8   c1.5,0,3.1-0.6,4.2-1.8c2.3-2.3,2.3-6.1,0-8.5L107.8,148L107.8,148z"/>
  </g>
        </defs>
        <use xlink:href="#clck" transform="translate(0 0 203.5 203.5)"/>
    </symbol>













    







</svg>

