<?xml version="1.0" encoding="utf-8"?>
<!-- Generator: Adobe Illustrator 21.1.0, SVG Export Plug-In . SVG Version: 6.00 Build 0)  -->
<svg version="1.1" id="Слой_1" xmlns="http://www.w3.org/2000/svg" xmlns:xlink="http://www.w3.org/1999/xlink" x="0px" y="0px"
	 viewBox="0 0 276.5 186.7" style="enable-background:new 0 0 276.5 186.7;" xml:space="preserve">
<style type="text/css">
	<!-- .st0{fill-rule:evenodd;clip-rule:evenodd;fill:#FFFFFF;} -->
	.st1{fill:#50B800;}
	.st2{fill:url(#SVGID_1_);}
</style>
<path class="st0" d="M238.2,85.4l-4-6.9l4-6.9l4-6.9l20,2.5c-3.3-6.9-9.5-11.6-16.7-11.6c-7.6,0-14.3,5.4-17.3,13.2l-111.5-5
	c-5.1-10.9-15.8-18.5-28.1-18.5c-9.1,0-17.3,4.1-23.1,10.6l30,2.6l5.7,9.8l5.7,9.8l-5.7,9.8l-5.7,9.8l-30,2.6
	c5.7,6.5,13.9,10.6,23,10.6c12,0,22.5-7.1,27.7-17.6l111.9-5c3.1,7.8,9.7,13.3,17.4,13.3c7.1,0,13.4-4.7,16.7-11.6l-20,2.5
	L238.2,85.4z M125.1,75.2l-0.3-6.5l100.4,5L125.1,75.2z"/>
<path class="st1" d="M223.3,92l-102,9.3c-1.4,2.4-3,4.6-4.8,6.6l73.1-6.5c13.9-1.2,27.3-0.4,40.9,1.3C227.5,99.9,225,96.3,223.3,92z
	"/>
<radialGradient id="SVGID_1_" cx="135.8031" cy="62.553" r="94.8982" gradientUnits="userSpaceOnUse">
	<stop  offset="0" style="stop-color:#50B800"/>
	<stop  offset="1" style="stop-color:#50A900"/>
</radialGradient>
<path class="st2" d="M230.4,46.1c-16.7,2.6-31.4,5.1-44.1,7.5c-24.8,1.4-33.7-0.9-49.2-14.5c15.6,11.2,25.7,12,53.8,9.4l39.5-6.7
	c3.6-0.6,7.5-0.7,11.3-0.2c-13.9-7-36.8-0.7-55.1-0.4c-9.9-6.5-19.9-12.6-30.1-17.7c-26.8-13.5-66-11.1-98.2-9c12,0.1,24.2,1,36,3.6
	c6.1,1.3,12.2,3.4,17.9,5.9c-26.6-9-59.8-4.3-87.2-1.8c-2.6,0.2-4.2,2.6-1,3.5c7.8,2,15.3,0.6,23.1,0.8c14.5,0.5,10.8,8.1-0.9,9.9
	c-6.1,1-15.3-2.1-23.1-3.4c-2.7-0.4-5.6-0.5-9.2-0.3C4,68.5,19.6,85.3,62.1,112h3.5c-9.4-7.8-15.5-20.1-15.5-34
	c0-23.5,17.4-42.6,38.8-42.6c13.6,0,25.5,7.7,32.5,19.3l102.1,10.1c3.8-9.4,11.4-15.8,20.1-15.8c6.8,0,13,3.9,17.1,10.1
	C255.9,49,248.7,43.3,230.4,46.1z M109.3,17.5c0,0,31.3-4.3,69.1,22.8C178.4,40.4,144.6,51.3,109.3,17.5z"/>
</svg>
