<?xml version="1.0" encoding="utf-8"?>
<!-- Generator: Adobe Illustrator 21.1.0, SVG Export Plug-In . SVG Version: 6.00 Build 0)  -->
<svg version="1.1" id="Слой_1" xmlns="http://www.w3.org/2000/svg" xmlns:xlink="http://www.w3.org/1999/xlink" x="0px" y="0px"
	 viewBox="0 0 276.5 186.7" style="enable-background:new 0 0 276.5 186.7;" xml:space="preserve">
<style type="text/css">
	.st0{fill:#FFFFFF;}
	.st1{fill:url(#SVGID_1_);}
	.st2{fill:url(#SVGID_2_);}
	.st3{fill:url(#SVGID_3_);}
</style>
<g>
	<path class="st0" d="M14.4,171.9v-8.3h6.5v8.3h-1.2v-7.3h-4.2v7.3H14.4z"/>
	<path class="st0" d="M24.7,167.7c0-1.2,0.4-2.2,1.2-3c0.8-0.8,1.8-1.2,3-1.2c1.2,0,2.2,0.4,3,1.2c0.8,0.8,1.2,1.8,1.2,3
		c0,1.2-0.4,2.3-1.2,3.1c-0.8,0.8-1.8,1.3-3,1.3c-1.2,0-2.2-0.4-3-1.3C25.2,170,24.7,169,24.7,167.7z M25.9,167.7
		c0,0.9,0.3,1.7,0.9,2.3c0.6,0.6,1.3,0.9,2.2,0.9c0.9,0,1.6-0.3,2.2-0.9c0.6-0.6,0.9-1.4,0.9-2.3c0-0.9-0.3-1.6-0.9-2.3
		c-0.6-0.6-1.3-0.9-2.2-0.9c-0.9,0-1.6,0.3-2.2,0.9C26.2,166.1,25.9,166.8,25.9,167.7z"/>
	<path class="st0" d="M36.8,171.9l0.7-8.3h1.2l1.9,4.5l0.4,1.1h0c0.1-0.4,0.3-0.8,0.4-1.1l1.9-4.5h1.2l0.7,8.3h-1.2l-0.4-5.2l0-1.2
		h0c-0.2,0.5-0.3,0.9-0.4,1.2l-1.7,3.7h-1l-1.6-3.7l-0.4-1.2h0c0,0.5,0,0.9,0,1.2l-0.4,5.2H36.8z"/>
	<path class="st0" d="M48.8,167.7c0-1.2,0.4-2.2,1.2-3c0.8-0.8,1.8-1.2,3-1.2c1.2,0,2.2,0.4,3,1.2c0.8,0.8,1.2,1.8,1.2,3
		c0,1.2-0.4,2.3-1.2,3.1c-0.8,0.8-1.8,1.3-3,1.3c-1.2,0-2.2-0.4-3-1.3C49.2,170,48.8,169,48.8,167.7z M50,167.7
		c0,0.9,0.3,1.7,0.9,2.3c0.6,0.6,1.3,0.9,2.2,0.9s1.6-0.3,2.2-0.9c0.6-0.6,0.9-1.4,0.9-2.3c0-0.9-0.3-1.6-0.9-2.3
		c-0.6-0.6-1.3-0.9-2.2-0.9s-1.6,0.3-2.2,0.9C50.3,166.1,50,166.8,50,167.7z"/>
	<path class="st0" d="M61.1,171.9v-8.3h1.2v7.3h3.1v-7.3h1.2v7.3h3.1v-7.3h1.2v7.3h1v2.7h-1.1v-1.6H61.1z"/>
	<path class="st0" d="M75.5,171.9v-8.3h1.2v3.1h1.8c0.7,0,1.4,0.2,1.8,0.7s0.7,1.1,0.7,1.9c0,0.8-0.2,1.4-0.7,1.9
		c-0.5,0.5-1.1,0.7-1.8,0.7H75.5z M76.7,170.9h1.6c0.5,0,0.8-0.1,1.1-0.4c0.3-0.3,0.4-0.7,0.4-1.1c0-0.5-0.1-0.9-0.4-1.2
		s-0.6-0.4-1.1-0.4h-1.6V170.9z"/>
	<path class="st0" d="M89.7,171.9v-8.3h2.9c0.7,0,1.3,0.2,1.7,0.6c0.4,0.4,0.7,0.9,0.7,1.6c0,0.4-0.1,0.8-0.3,1.1
		c-0.2,0.3-0.4,0.6-0.8,0.7v0c0.4,0.1,0.8,0.4,1,0.7c0.2,0.4,0.4,0.8,0.4,1.3c0,0.8-0.3,1.3-0.8,1.7c-0.5,0.4-1.1,0.6-1.9,0.6H89.7z
		 M90.9,167.1h1.7c0.4,0,0.7-0.1,0.9-0.4c0.2-0.2,0.3-0.5,0.3-0.9c0-0.4-0.1-0.7-0.3-0.9c-0.2-0.2-0.5-0.3-0.9-0.3h-1.7V167.1z
		 M90.9,170.9h1.9c0.4,0,0.8-0.1,1-0.4c0.3-0.3,0.4-0.6,0.4-1c0-0.4-0.1-0.8-0.4-1c-0.3-0.3-0.6-0.4-1-0.4h-1.9V170.9z"/>
	<path class="st0" d="M98.2,171.9l3-8.3h1.2l3,8.3h-1.2l-0.8-2.4h-3.1l-0.8,2.4H98.2z M100.5,168.6h2.5l-0.9-2.6l-0.3-1.2h0
		c-0.1,0.5-0.2,0.9-0.3,1.2L100.5,168.6z"/>
	<path class="st0" d="M108.8,171.9v-8.3h1.2v7.3h3.1v-7.3h1.2v7.3h3.1v-7.3h1.2v8.3H108.8z"/>
	<path class="st0" d="M122.8,171.9v-8.3h4.8v1H124v2.6h3v1h-3v2.7h3.9v1H122.8z"/>
	<path class="st0" d="M131.3,171.9l0.7-8.3h1.2l1.9,4.5l0.4,1.1h0c0.1-0.4,0.3-0.8,0.4-1.1l1.9-4.5h1.2l0.7,8.3h-1.2l-0.4-5.2l0-1.2
		h0c-0.2,0.5-0.3,0.9-0.4,1.2l-1.7,3.7h-1l-1.6-3.7l-0.4-1.2h0c0,0.5,0,0.9,0,1.2l-0.4,5.2H131.3z"/>
	<path class="st0" d="M143.6,171.5l0.5-0.9c0.4,0.3,0.7,0.4,1,0.4c0.2,0,0.4-0.1,0.5-0.2c0.1-0.2,0.3-0.4,0.4-0.7l-3.3-6.5h1.3
		l2,4.2l0.5,1.1h0c0.1-0.4,0.2-0.7,0.4-1.1l1.5-4.2h1.2l-2.6,6.8c-0.4,1.1-1.1,1.7-1.9,1.7C144.6,172.1,144.1,171.9,143.6,171.5z"/>
	<path class="st0" d="M157.2,171.9l3-8.3h1.2l3,8.3h-1.2l-0.8-2.4h-3.1l-0.8,2.4H157.2z M159.6,168.6h2.5l-0.9-2.6l-0.3-1.2h0
		c-0.1,0.5-0.2,0.9-0.3,1.2L159.6,168.6z"/>
	<path class="st0" d="M167.9,171.9v-8.3h2.9c0.7,0,1.3,0.2,1.7,0.6c0.4,0.4,0.7,0.9,0.7,1.6c0,0.4-0.1,0.8-0.3,1.1
		c-0.2,0.3-0.4,0.6-0.8,0.7v0c0.4,0.1,0.8,0.4,1,0.7c0.2,0.4,0.4,0.8,0.4,1.3c0,0.8-0.3,1.3-0.8,1.7c-0.5,0.4-1.1,0.6-1.9,0.6H167.9
		z M169,167.1h1.7c0.4,0,0.7-0.1,0.9-0.4c0.2-0.2,0.3-0.5,0.3-0.9c0-0.4-0.1-0.7-0.3-0.9c-0.2-0.2-0.5-0.3-0.9-0.3H169V167.1z
		 M169,170.9h1.9c0.4,0,0.8-0.1,1-0.4c0.3-0.3,0.4-0.6,0.4-1c0-0.4-0.1-0.8-0.4-1c-0.3-0.3-0.6-0.4-1-0.4H169V170.9z"/>
	<path class="st0" d="M179,171.9v-7.3h-2.9v-1h6.9v1h-2.9v7.3H179z"/>
	<path class="st0" d="M185.6,167.7c0-1.2,0.4-2.2,1.2-3c0.8-0.8,1.8-1.2,3-1.2c1.2,0,2.2,0.4,3,1.2c0.8,0.8,1.2,1.8,1.2,3
		c0,1.2-0.4,2.3-1.2,3.1c-0.8,0.8-1.8,1.3-3,1.3c-1.2,0-2.2-0.4-3-1.3C186,170,185.6,169,185.6,167.7z M186.8,167.7
		c0,0.9,0.3,1.7,0.9,2.3c0.6,0.6,1.3,0.9,2.2,0.9c0.9,0,1.6-0.3,2.2-0.9c0.6-0.6,0.9-1.4,0.9-2.3c0-0.9-0.3-1.6-0.9-2.3
		c-0.6-0.6-1.3-0.9-2.2-0.9c-0.9,0-1.6,0.3-2.2,0.9C187.1,166.1,186.8,166.8,186.8,167.7z"/>
	<path class="st0" d="M197.7,171.9l0.7-8.3h1.2l1.9,4.5l0.4,1.1h0c0.1-0.4,0.3-0.8,0.4-1.1l1.9-4.5h1.2l0.7,8.3H205l-0.4-5.2l0-1.2
		h0c-0.2,0.5-0.3,0.9-0.4,1.2l-1.7,3.7h-1l-1.6-3.7l-0.4-1.2h0c0,0.5,0,0.9,0,1.2l-0.4,5.2H197.7z"/>
	<path class="st0" d="M209.7,167.7c0-1.2,0.4-2.2,1.2-3c0.8-0.8,1.8-1.2,3-1.2c1.2,0,2.2,0.4,3,1.2c0.8,0.8,1.2,1.8,1.2,3
		c0,1.2-0.4,2.3-1.2,3.1c-0.8,0.8-1.8,1.3-3,1.3c-1.2,0-2.2-0.4-3-1.3C210.1,170,209.7,169,209.7,167.7z M210.9,167.7
		c0,0.9,0.3,1.7,0.9,2.3c0.6,0.6,1.3,0.9,2.2,0.9c0.9,0,1.6-0.3,2.2-0.9c0.6-0.6,0.9-1.4,0.9-2.3c0-0.9-0.3-1.6-0.9-2.3
		c-0.6-0.6-1.3-0.9-2.2-0.9c-0.9,0-1.6,0.3-2.2,0.9C211.2,166.1,210.9,166.8,210.9,167.7z"/>
	<path class="st0" d="M222,171.9v-8.3h4.9v1h-3.7v2.3h1.8c0.7,0,1.4,0.2,1.8,0.7c0.5,0.4,0.7,1.1,0.7,1.8c0,0.7-0.2,1.3-0.7,1.8
		c-0.5,0.5-1.1,0.7-1.8,0.7H222z M223.2,170.9h1.7c0.5,0,0.8-0.1,1.1-0.4c0.3-0.3,0.4-0.6,0.4-1.1c0-0.5-0.1-0.8-0.4-1.1
		c-0.3-0.3-0.6-0.4-1.1-0.4h-1.7V170.9z"/>
	<path class="st0" d="M231.3,171.9v-8.3h1.2v5.4l-0.1,1.2h0c0.3-0.5,0.5-0.9,0.7-1.2l3.7-5.4h1.1v8.3h-1.2v-5.4l0.1-1.2h0
		c-0.3,0.5-0.5,0.9-0.7,1.2l-3.7,5.4H231.3z"/>
	<path class="st0" d="M241.4,171c0.7-0.1,1.2-0.6,1.5-1.4c0.3-0.9,0.4-2.2,0.4-3.9v-2h4.8v8.3h-1.2v-7.3h-2.6v1
		c0,2.1-0.2,3.7-0.7,4.7c-0.5,1.1-1.2,1.6-2.3,1.7V171z"/>
	<path class="st0" d="M252.5,171.9v-8.3h1.2v3.6h1.4c0.1-1.1,0.5-2,1.3-2.7c0.8-0.7,1.7-1.1,2.8-1.1c1.2,0,2.2,0.4,3,1.2
		c0.8,0.8,1.2,1.8,1.2,3c0,1.2-0.4,2.3-1.2,3.1c-0.8,0.8-1.8,1.3-3,1.3c-1.1,0-2-0.4-2.8-1.1c-0.8-0.7-1.2-1.6-1.3-2.7h-1.4v3.6
		H252.5z M256.2,167.7c0,0.9,0.3,1.7,0.9,2.3c0.6,0.6,1.3,1,2.1,1c0.8,0,1.5-0.3,2.1-1c0.6-0.6,0.9-1.4,0.9-2.3
		c0-0.9-0.3-1.6-0.9-2.2c-0.6-0.6-1.3-0.9-2.1-0.9c-0.8,0-1.5,0.3-2.1,0.9C256.5,166.1,256.2,166.9,256.2,167.7z"/>
</g>
<linearGradient id="SVGID_1_" gradientUnits="userSpaceOnUse" x1="31.7948" y1="155.865" x2="31.7948" y2="120.1953">
	<stop  offset="0.5" style="stop-color:#439800"/>
	<stop  offset="0.5112" style="stop-color:#49A000"/>
	<stop  offset="0.532" style="stop-color:#4FA700"/>
	<stop  offset="0.5866" style="stop-color:#50A900"/>
	<stop  offset="0.6451" style="stop-color:#50A900"/>
	<stop  offset="1" style="stop-color:#50A900"/>
</linearGradient>
<path class="st1" d="M46.5,143.4l4.8,7.2l-0.7,0.5c-0.5-0.4-0.9-0.7-1.2-0.7c-0.3,0-1.2,0.4-2.5,1.2c-2.9,1.7-5.3,2.8-7.3,3.4
	c-2,0.6-4.3,0.9-7.1,0.9c-5.4,0-9.9-1.3-13.4-3.9c-2.1-1.5-3.7-3.4-4.8-5.6c-1.4-2.5-2-5.3-2-8.4c0-4.2,1.2-7.8,3.7-10.9
	c3.7-4.6,9.2-6.9,16.6-6.9c2.7,0,5.1,0.3,7,0.9c2,0.6,4.4,1.7,7.3,3.4c1.4,0.8,2.2,1.2,2.5,1.2c0.3,0,0.7-0.2,1.2-0.7l0.7,0.5
	l-4.8,7.2l-0.7-0.5c0-0.3,0.1-0.5,0.1-0.7c0-0.5-0.2-0.9-0.6-1.4c-0.4-0.4-1.2-0.9-2.2-1.5c-3-1.7-6.1-2.5-9.5-2.5
	c-3.9,0-7.1,1-9.4,3c-2.8,2.3-4.1,5.3-4.1,9c0,3.7,1.4,6.7,4.1,9c2.3,2,5.5,3,9.4,3c3.3,0,6.5-0.8,9.5-2.5c1.1-0.6,1.8-1.1,2.2-1.6
	c0.4-0.4,0.6-0.9,0.6-1.4c0-0.2,0-0.4-0.1-0.7L46.5,143.4z"/>
<linearGradient id="SVGID_2_" gradientUnits="userSpaceOnUse" x1="73.8885" y1="155.2586" x2="73.8885" y2="120.8016">
	<stop  offset="0.5" style="stop-color:#439800"/>
	<stop  offset="0.5112" style="stop-color:#49A000"/>
	<stop  offset="0.532" style="stop-color:#4FA700"/>
	<stop  offset="0.5866" style="stop-color:#50A900"/>
	<stop  offset="0.6451" style="stop-color:#50A900"/>
	<stop  offset="1" style="stop-color:#50A900"/>
</linearGradient>
<path class="st2" d="M81,146.5H65.4l-2.3,4.8c-0.3,0.7-0.5,1.2-0.5,1.6c0,0.7,0.6,1.3,1.7,1.5v0.8H52.9v-0.8
	c0.7-0.1,1.2-0.4,1.5-0.7c0.4-0.3,0.8-1,1.2-2l12.7-26.5c0.4-0.8,0.6-1.5,0.6-2c0-0.8-0.5-1.3-1.5-1.7v-0.8h12.2v0.8
	c-1,0.3-1.5,0.8-1.5,1.5c0,0.5,0.2,1,0.5,1.7l13.1,26.6c0.6,1.1,1,1.9,1.5,2.3c0.4,0.4,1,0.7,1.7,0.8v0.8H82.2v-0.8
	c1.1-0.2,1.7-0.7,1.7-1.6c0-0.4-0.2-0.9-0.5-1.6L81,146.5z M78.9,141.8l-5.6-12.3l-5.7,12.3H78.9z"/>
<linearGradient id="SVGID_3_" gradientUnits="userSpaceOnUse" x1="116.6757" y1="155.2586" x2="116.6757" y2="120.8016">
	<stop  offset="0.5" style="stop-color:#439800"/>
	<stop  offset="0.5112" style="stop-color:#49A000"/>
	<stop  offset="0.532" style="stop-color:#4FA700"/>
	<stop  offset="0.5866" style="stop-color:#50A900"/>
	<stop  offset="0.6451" style="stop-color:#50A900"/>
	<stop  offset="1" style="stop-color:#50A900"/>
</linearGradient>
<path class="st3" d="M107,141.2v11.4c0,0.5,0.1,0.9,0.4,1.2c0.2,0.3,0.7,0.5,1.2,0.6v0.8H97.8v-0.8c0.6-0.2,1-0.4,1.3-0.7
	c0.2-0.3,0.4-0.7,0.4-1.2v-29.2c0-0.5-0.1-0.9-0.4-1.2c-0.2-0.3-0.7-0.5-1.3-0.7v-0.8h21.6c2.6,0,4.7,0.2,6.2,0.5
	c1.5,0.3,2.9,0.8,4,1.6c1.3,0.9,2.3,2.1,3,3.6c0.6,1.4,0.9,3,0.9,4.6c0,5.6-3.1,8.9-9.4,9.9l6.7,9.5c1.2,1.7,2,2.7,2.6,3.2
	c0.5,0.5,1.2,0.7,2,0.8v0.8h-12.4v-0.8c0.9-0.1,1.3-0.4,1.3-0.9c0-0.3-0.4-1-1.2-2.2l-7-10.1H107z M107,135.5h11.6
	c1.7,0,2.9-0.1,3.6-0.2c0.7-0.1,1.4-0.3,1.9-0.6c1.3-0.7,1.9-1.9,1.9-3.7c0-1.8-0.6-3-1.9-3.7c-0.6-0.3-1.2-0.6-1.9-0.6
	c-0.7-0.1-1.9-0.1-3.6-0.1H107V135.5z"/>
<path class="st0" d="M141.3,152.6v-29.2c0-0.5-0.1-0.9-0.4-1.2c-0.2-0.3-0.7-0.5-1.3-0.7v-0.8h19.2c4.2,0,7.4,0.5,9.7,1.4
	c3.2,1.4,5.6,3.7,7.2,6.9c1.2,2.5,1.8,5.5,1.8,8.9c0,5.9-1.8,10.5-5.5,13.6c-1.5,1.3-3.3,2.3-5.4,2.8c-2.1,0.6-4.7,0.8-7.9,0.8
	h-19.2v-0.8c0.6-0.2,1-0.4,1.3-0.7C141.1,153.5,141.3,153.1,141.3,152.6z M148.8,149.6h9.5c3,0,5.3-0.4,6.8-1.2
	c3.3-1.8,4.9-5.2,4.9-10.3c0-3.7-0.9-6.5-2.6-8.5c-1-1.1-2.2-1.9-3.5-2.3c-1.4-0.5-3.2-0.7-5.5-0.7h-9.5V149.6z"/>
<path class="st0" d="M201.9,120.2c6,0,10.8,1.6,14.3,4.9c3.7,3.4,5.6,7.8,5.6,13.2c0,3.3-0.9,6.4-2.7,9.2c-3.5,5.6-9.2,8.4-17.2,8.4
	c-6,0-10.7-1.6-14.2-4.9c-1.9-1.7-3.3-3.8-4.3-6.2c-0.9-2.1-1.3-4.4-1.3-6.7c0-3.5,0.9-6.6,2.7-9.5
	C188.2,123.1,193.9,120.3,201.9,120.2z M202,126.1c-3.3,0-6,1-8.2,2.9c-2.6,2.3-3.9,5.3-3.9,9.1c0,3.7,1.3,6.8,3.9,9.1
	c2.2,1.9,4.9,2.9,8.3,2.9c3.3,0,6.1-1,8.2-2.9c1.3-1.2,2.3-2.6,3-4.3c0.6-1.5,0.9-3,0.9-4.6c0-3.9-1.3-7-3.9-9.2
	C208,127.1,205.3,126.1,202,126.1z"/>
<path class="st0" d="M260.6,143.4l4.8,7.2l-0.7,0.5c-0.5-0.4-0.9-0.7-1.2-0.7c-0.3,0-1.2,0.4-2.6,1.2c-2.9,1.7-5.3,2.8-7.3,3.4
	c-2,0.6-4.3,0.9-7.1,0.9c-5.4,0-9.9-1.3-13.4-3.9c-2.1-1.5-3.7-3.4-4.8-5.6c-1.4-2.5-2-5.3-2-8.4c0-4.2,1.2-7.8,3.7-10.9
	c3.7-4.6,9.2-6.9,16.6-6.9c2.7,0,5.1,0.3,7,0.9c2,0.6,4.4,1.7,7.3,3.4c1.4,0.8,2.2,1.2,2.6,1.2c0.3,0,0.7-0.2,1.2-0.7l0.7,0.5
	l-4.8,7.2l-0.7-0.5c0-0.3,0-0.5,0-0.7c0-0.5-0.2-0.9-0.6-1.4c-0.4-0.4-1.2-0.9-2.2-1.5c-3-1.7-6.1-2.5-9.5-2.5c-3.9,0-7.1,1-9.4,3
	c-2.8,2.3-4.1,5.3-4.1,9c0,3.7,1.4,6.7,4.1,9c2.3,2,5.5,3,9.4,3c3.3,0,6.5-0.8,9.5-2.5c1.1-0.6,1.8-1.1,2.2-1.6
	c0.4-0.4,0.6-0.9,0.6-1.4c0-0.2,0-0.4,0-0.7L260.6,143.4z"/>
</svg>
